<svg width="16" height="19" viewBox="0 0 16 19" fill="none" xmlns="http://www.w3.org/2000/svg">
<g clip-path="url(#clip0_1_310)">
<path d="M7.50001 4.906V5.844H8.50001V4.906H7.50001ZM7.50001 6.781V7.719H8.50001V6.78H7.50001V6.781ZM7.50001 8.656V9.594H8.50001V8.656H7.50001ZM1.90601 11.5H2.84401V10.5H1.90601V11.5ZM3.78101 11.5H4.71901V10.5H3.78001V11.5H3.78101ZM5.65601 11.5H6.59401V10.5H5.65601V11.5ZM8.46901 11.5V11.469H8.50001V10.53H8.46901V10.5H7.53001V10.531H7.50001V11.469H7.53101V11.5H8.46901ZM9.40601 11.5H10.344V10.5H9.40601V11.5ZM11.281 11.5H12.219V10.5H11.281V11.5ZM13.156 11.5H14.094V10.5H13.156V11.5ZM7.50001 12.406V13.344H8.50001V12.406H7.50001ZM7.50001 14.281V15.219H8.50001V14.281H7.50001ZM7.50001 16.156V17.094H8.50001V16.156H7.50001Z" fill="black"/>
<path d="M0 3V19H16V3H0ZM1 4H15V18H1V4Z" fill="black"/>
</g>
<defs>
<clipPath id="clip0_1_310">
<rect width="16" height="16" fill="white" transform="translate(0 3)"/>
</clipPath>
</defs>
</svg>
