<svg width="16" height="19" viewBox="0 0 16 19" fill="none" xmlns="http://www.w3.org/2000/svg">
<g clip-path="url(#clip0_1_321)">
<path d="M0 3V4H16V3H0ZM1 5.844V4.906H0V5.844H1ZM7.5 4.906V5.844H8.5V4.906H7.5ZM15 4.906V5.844H16V4.906H15ZM1 7.719V6.78H0V7.718H1V7.719ZM7.5 6.781V7.719H8.5V6.78H7.5V6.781ZM15 6.781V7.719H16V6.78H15V6.781ZM1 9.594V8.656H0V9.594H1ZM7.5 8.656V9.594H8.5V8.656H7.5ZM15 8.656V9.594H16V8.656H15ZM0.5 11.5H0.969V11.469H1V10.53H0.969V10.5H0.5V10.531H0V11.469H0.5V11.5ZM1.906 11.5H2.844V10.5H1.906V11.5ZM3.781 11.5H4.719V10.5H3.78V11.5H3.781ZM5.656 11.5H6.594V10.5H5.656V11.5ZM8.469 11.5V11.469H8.5V10.53H8.469V10.5H7.53V10.531H7.5V11.469H7.531V11.5H8.469ZM9.406 11.5H10.344V10.5H9.406V11.5ZM11.281 11.5H12.219V10.5H11.281V11.5ZM13.156 11.5H14.094V10.5H13.156V11.5ZM15.031 11.5H15.5V11.469H16V10.53H15.5V10.5H15.031V10.531H15V11.469H15.031V11.5V11.5ZM0 12.406V13.344H1V12.406H0ZM7.5 12.406V13.344H8.5V12.406H7.5ZM16 13.344V12.406H15V13.344H16ZM0 14.281V15.219H1V14.281H0ZM7.5 14.281V15.219H8.5V14.281H7.5ZM16 15.219V14.281H15V15.219H16ZM0 16.156V17.094H1V16.156H0ZM7.5 16.156V17.094H8.5V16.156H7.5ZM16 17.094V16.156H15V17.094H16ZM0 19H0.969V18.5H1V18.031H0.969V18H0.5V18.031H0V19ZM1.906 19H2.844V18H1.906V19ZM3.781 19H4.719V18H3.78V19H3.781ZM5.656 19H6.594V18H5.656V19ZM7.531 18.5V19H8.469V18.5H8.5V18.031H8.469V18H7.53V18.031H7.5V18.5H7.531ZM9.406 19H10.344V18H9.406V19ZM11.281 19H12.219V18H11.281V19ZM13.156 19H14.094V18H13.156V19ZM15.031 18.5V19H16V18.031H15.5V18H15.031V18.031H15V18.5H15.031V18.5Z" fill="black"/>
</g>
<defs>
<clipPath id="clip0_1_321">
<rect width="16" height="16" fill="white" transform="translate(0 3)"/>
</clipPath>
</defs>
</svg>
